<svg width="1024" height="1024" viewBox="0 0 1024 1024" fill="none" xmlns="http://www.w3.org/2000/svg">
<rect width="1024" height="1024" rx="124" fill="#2F3951"/>
<path d="M817 762.5L526.961 833.271C516.922 835.721 506.439 835.703 496.409 833.219L206.733 761.5C194.67 757 192.678 743 201.25 739.5L511.678 647L822.142 739.5C833.5 742.5 830 758.5 817 762.5Z" fill="#5BBAE5"/>
<path d="M407.735 506.066L292.047 697.729C285.077 709.275 291.3 724.268 304.397 727.486L507.227 777.327C510.363 778.098 513.637 778.098 516.773 777.327L719.603 727.486C732.7 724.268 738.923 709.275 731.953 697.729L616.265 506.066C613.533 501.54 609.121 498.28 603.993 496.998L516.851 475.213C513.666 474.416 510.334 474.416 507.149 475.213L420.007 496.998C414.879 498.28 410.467 501.54 407.735 506.066Z" fill="#9CD7F3"/>
<g opacity="0.5">
<path d="M512 837.165V185L827.016 739.874C832.191 748.953 826.803 760.055 815.939 762.7L512 837.165Z" fill="#9BDBF8"/>
<path d="M512 837.165V185L198.763 739.874C193.578 749.03 200.435 760.174 211.416 762.7L512 837.165Z" fill="url(#paint0_linear_1236_12510)"/>
</g>
<path d="M530 832.734C517 836 507 836 493.5 832.734V839.5H530V832.734Z" fill="#2F3951"/>
<defs>
<linearGradient id="paint0_linear_1236_12510" x1="510.689" y1="674.871" x2="226.669" y2="393.592" gradientUnits="userSpaceOnUse">
<stop stop-color="#5BBAE5"/>
<stop offset="1" stop-color="#42719C"/>
</linearGradient>
</defs>
</svg>
